<!DOCTYPE svg PUBLIC "-//W3C//DTD SVG 1.1//EN" "http://www.w3.org/Graphics/SVG/1.1/DTD/svg11.dtd">
<!-- Uploaded to: SVG Repo, www.svgrepo.com, Transformed by: SVG Repo Mixer Tools -->
<svg fill="#ededed" width="800px" height="800px" viewBox="-6 -6 36.00 36.00" xmlns="http://www.w3.org/2000/svg" preserveAspectRatio="xMinYMin" class="jam jam-rubber" stroke="#ededed" stroke-width="0.00024000000000000003">
<g id="SVGRepo_bgCarrier" stroke-width="0">
<rect x="-6" y="-6" width="36.00" height="36.00" rx="18" fill="#403b3b" strokewidth="0"/>
</g>
<g id="SVGRepo_tracerCarrier" stroke-linecap="round" stroke-linejoin="round"/>
<g id="SVGRepo_iconCarrier">
<path d="M12.728 12.728L8.485 8.485l-5.657 5.657 2.122 2.121a3 3 0 0 0 4.242 0l3.536-3.535zM11.284 17H14a1 1 0 0 1 0 2H3a1 1 0 0 1-.133-1.991l-1.453-1.453a2 2 0 0 1 0-2.828L12.728 1.414a2 2 0 0 1 2.828 0L19.8 5.657a2 2 0 0 1 0 2.828L11.284 17z"/>
</g>
</svg>